<?xml version="1.0" encoding="utf-8"?>
<!-- Generator: Adobe Illustrator 24.0.2, SVG Export Plug-In . SVG Version: 6.00 Build 0)  -->
<svg version="1.1" id="图层_1" xmlns="http://www.w3.org/2000/svg" xmlns:xlink="http://www.w3.org/1999/xlink" x="0px" y="0px"
	 viewBox="0 0 1024 1024" style="enable-background:new 0 0 1024 1024; background: #fff;" xml:space="preserve">
<style type="text/css">
	.st0{fill:#4d9221;}
</style>
<g>
	<path class="st0" d="M568,17.8c46.4,3.4,90.4,16.3,132.8,33.1c56.7,90.9,92.7,185.4,90.5,238c-18.8-8.7-38-14.9-59.5-14.2
		c-38.4-98.4-96.1-196.9-187.4-254.3C551.5,12.9,560,17.5,568,17.8z"/>
	<path class="st0" d="M292.8,274.6c-18.3,1.5-35.6,5.7-51.7,14.3c-7.2-41.6,31.2-143.5,91-241.4c49.9-19.4,102.3-30.8,157.9-32.8
		C394.8,79.8,336.8,171,292.8,274.6z"/>
	<path class="st0" d="M225.1,301.6c-22.3,13.3-20.2,41.3-34.8,60c-21.8-73.2-17.3-146.5-9.9-221c37.6-34,79.8-61.5,130.6-84.2
		C267.8,135.3,226.5,210.5,225.1,301.6z"/>
	<path class="st0" d="M722.2,60.3c50,23.9,91.4,52,128,86.1c12.8,57.8,7.6,179.2-10.4,217c-13.4-21.2-11.3-48.9-33.3-61.3
		C804.2,211.2,765.8,139.4,722.2,60.3z"/>
	<path class="st0" d="M179.2,375c-9.8,18.1-12.8,38-11.9,59.5c-3.7,5.4-7.8,11.4-12.7,18.5c-38-65-52.9-135.6-62.7-208.3
		c20.1-32.1,43.9-61,72.9-89.8C161,230.7,154.8,303.7,179.2,375z"/>
	<path class="st0" d="M866.8,162.5c26.1,29.8,61.1,62.4,70.5,96.7c-11.4,65.9-22.7,136.8-62,192.1c-19.6-21.8-5.4-53.7-24.1-75.4
		C876.4,305.2,870.7,237.6,866.8,162.5z"/>
	<path class="st0" d="M728,453.5c20.6-53.3,24.1-107.6,8-162.6c113.2-9.9,96.9,144,32.1,194.8C755.1,474.2,742.8,462.6,728,453.5z"
		/>
	<path class="st0" d="M288.1,290.1c-14.1,74.3-14.1,74.3,8.1,167c-10.8,9.2-21.8,18.5-33.5,28.4C201.1,436,180.5,291.6,288.1,290.1z
		"/>
	<path class="st0" d="M80.7,263.7c12.5,74.4,28.2,143.6,69,206.2c-8,15.6,4.1,35.2-6.4,53.7c-54.5-43.1-77-110-97.7-173.5
		C41.8,328.1,68.6,287.3,80.7,263.7z"/>
	<path class="st0" d="M891.4,523.1c-5.2-2-7-5.3-8.6-9.1c3.9-14.8,3.5-29.6-0.7-44.9c38-58.1,54.1-124.3,66.9-195.3
		c16.1,27.6,26.4,53.8,35.9,81.4C964.8,417.2,944.4,479.4,891.4,523.1z"/>
	<path class="st0" d="M134.3,534.8c-3.7,9.3-5.4,18.2-4.5,30.3c-53-17.7-82.6-58.8-113.8-98.6c3-33.4,9.2-65.6,19.6-100.6
		C58.6,429.6,81.3,490.3,134.3,534.8z"/>
	<path class="st0" d="M902.5,564.8c-0.9-11.5-1.7-20.6-5.7-29c50.7-40,73.1-96.4,93.9-154.3c8.3,17.5,17,65.2,17.1,94.4
		C979.6,511.6,950.8,548.2,902.5,564.8z"/>
	<path class="st0" d="M140.9,636.8c1.2,1.8-0.5,4.6-2.6,3.1c-44.7-18.9-82.4-48.7-121.2-76.7c-3.4-24.3-4-48.3-2.8-75.9
		c35,40.4,66.9,80.5,122,92.6C138.7,598.5,130.5,619.2,140.9,636.8z"/>
	<path class="st0" d="M164.1,709.9c-49.9-9.1-92.3-33.4-131.6-63.5c-4.5-17.2-9.1-33.4-10.9-50.3c-0.7-4-3.8-9,3.8-9.7
		c41.6,28.6,81.1,59.4,130.5,74.3c-1.7,17,5.4,31.6,15.3,45.1C171.5,711.6,167.9,710.9,164.1,709.9z"/>
	<path class="st0" d="M853.1,712.9c14.6-16.3,23.7-32,21.6-51.9c47.8-14.9,87-43.8,128.9-73.4c-2.1,24.1-8.3,44.5-14,65.6
		C949.4,682.7,905.9,704.4,853.1,712.9z"/>
	<path class="st0" d="M125.1,825.2c-16.8-20.6-31.7-42.1-45.9-67.4c46,13.7,90.5,22.7,136.9,22.1c3.3,19.3,9.6,36.3,30.2,49.4
		C203.5,834.8,165,831,125.1,825.2z"/>
	<path class="st0" d="M891,639.4c9-19.4,2.7-39.3,2.8-59.1c51.3-10.7,82.6-46.6,115.5-83.8c2.4,25.4-0.9,47.9-2.3,71.6
		C971.1,594.9,934.4,621.7,891,639.4z"/>
	<path class="st0" d="M69.6,740.3c-11.7-22.4-21.5-44.9-30.1-71.8c45,30.9,91.3,51.7,143,58.8c3.5,13.8,9.6,25.7,17.6,38.5
		C153.9,764.8,111.3,754.6,69.6,740.3z"/>
	<path class="st0" d="M813.3,781.4c43.5-2.8,86-7.2,130.1-21.6c-14.1,25.5-28.7,45.8-45.1,66.1c-34.2,4-68.9,7.2-106.8,3.1
		C805.8,816.3,812,801.7,813.3,781.4z"/>
	<path class="st0" d="M196.5,375.8c7.5,47.1,21.8,89.9,59.6,122c-5.6,17.4-4.5,35-1.8,53.6C194.2,519.4,155.9,436.7,196.5,375.8z"/>
	<path class="st0" d="M833.6,374.1c39.1,47.4,7.7,146-57.9,179.1c1.8-19.6,6.7-38.1-1.1-55.1C810,465.5,823.3,437.5,833.6,374.1z"/>
	<path class="st0" d="M979.1,683.5c-6.3,20.4-15.8,39.5-25.9,59.4c-37.8,12.5-76.6,21.6-118.7,22.8c5.6-13.2,11.6-24.7,13.7-38.4
		c46.1-6.3,87.8-23.6,127-47.6C978.2,679.3,979.8,680.2,979.1,683.5z"/>
	<path class="st0" d="M270.8,947.5c34.5-7.7,62.6-19.4,87.5-37.8c7.3-5.4,14.5-4,22.9-4.3c8.3,7.8,16.3,17.2,30,20.7
		c-18.6,26.4-43.7,41.6-72.9,52.1C316.2,970.8,295.1,960.7,270.8,947.5z"/>
	<path class="st0" d="M195.5,896.6c39.5-0.7,75.6,0.1,107.1-21.4c17.2,3.2,23.8,23.2,44.9,24.7c-20.1,15.6-40,21.8-59.4,29.7
		c-23.5,9.6-43.6,7.4-62.4-10.1C217.3,911.8,207.6,905.7,195.5,896.6z"/>
	<path class="st0" d="M671.6,781.6c23.8-2.2,47.6-3,57.4-30.8c36.3-0.6,71.4-6.1,105.3-24.2c-7.2,58.2-72.6,66.5-119.8,62.7
		C700.3,788.4,685.6,789.7,671.6,781.6z"/>
	<path class="st0" d="M156.6,843.1c36.2,2,72.5,5,109.7-4.2c4.8,9.8,10.8,20.7,22.2,29.6c-36.2,16.9-72.7,15.2-107.7,13.6
		c-13.1-12.6-24.9-24-36.7-35.4C146.2,838.5,152,842.7,156.6,843.1z"/>
	<path class="st0" d="M827.5,896.3c-18.4,16.6-36.6,28.3-55.3,40.2c-30.2-6.1-59.3-15.5-87.2-34.9c13.3-5.6,24-12,31.6-21.9
		c4.7-1.2,8.8-2.2,13.3-3.3C758.8,894.9,791.6,896.2,827.5,896.3z"/>
	<path class="st0" d="M253.6,626.5c-4.6,7.9-8.2,14.1-12.3,21.2c-40.5-23.6-127.5-60.2-85.5-118C174.7,576,221,593.7,253.6,626.5z"
		/>
	<path class="st0" d="M590.8,671.7c22.2,2.5,39.7-6.8,58.1-17.1c8.4,21.6,9.2,43.7,11.8,66.5C611.2,754.1,580.6,728.3,590.8,671.7z"
		/>
	<path class="st0" d="M884.9,841.1c-12.4,15.5-25.4,27.6-38.4,39.7c-33.2,6.1-68.8,2.2-102.4-10.9c9.5-9.2,17.2-17.7,20.2-30
		C804.2,845.2,843.3,844.9,884.9,841.1z"/>
	<path class="st0" d="M878,531.5c38.7,54.7-49.2,93.5-87.9,116.2c-4-6.7-8-13.2-12.1-20c8.5-10.3,18-18.6,29.3-25.5
		C839.2,582.6,851.9,569.5,878,531.5z"/>
	<path class="st0" d="M480.8,807.8c-1.1,22.6-4.3,42.3,7.5,59.4c-13.5,15.6-30.4,19.3-45.6,10.4c-23.2-13.6-27.4-36.8-12.6-75.4
		C446.5,801.5,461.3,818.4,480.8,807.8z"/>
	<path class="st0" d="M644.9,640.5c-53.6,37.8-75.5,15.3-70.5-44.9c12.7-5.1,25.6-10.2,39.8-15.9
		C626.6,598.5,636.9,618.4,644.9,640.5z"/>
	<path class="st0" d="M374.3,152.1c18-28.8,40.3-54.2,63.3-78.3c31.4-1.8,54,12,64.9,40.4c-45.7-0.6-86.3,14.1-123.8,38.5
		C377,153.7,375.5,153.5,374.3,152.1z"/>
	<path class="st0" d="M654.9,154.8c-38.6-24.1-81.3-41-127.7-40.8c8.9-26.6,30.1-40.2,63.5-40.6c23.8,23.7,45.2,50.4,63.9,79.3
		C656.2,153.1,655.8,154.5,654.9,154.8z"/>
	<path class="st0" d="M732,564.6c-6.1-22.8-17.6-41-33.6-57.6c9-13.1,17.3-26.5,24.4-41.2c12.1,8.6,23.7,16.7,32.9,27.2
		C775.9,516.8,767.4,562.2,732,564.6z"/>
	<path class="st0" d="M630.1,902.6c11.7,2.8,23.7,3.2,36.4,2.8c25.3,19.4,54.2,32.5,87.2,40.8c-13.8,9.9-28,15.3-41.9,21.8
		c-34.7-9.7-65.4-25.9-88.6-54.5C623.6,908.7,626.5,905.7,630.1,902.6z"/>
	<path class="st0" d="M660.3,736.8c1.4,25.6-1.8,48-6.4,70.8c-43.2,10.3-71.7-25.7-61.1-67.3C616.3,754.8,637.7,747.8,660.3,736.8z"
		/>
	<path class="st0" d="M446.3,660.3c19.9,10.1,40.9,9.4,63.4,10.8c-3.2,19.7-3.9,38.7,4.4,56.8C458.9,740.6,431.2,713.2,446.3,660.3z
		"/>
	<path class="st0" d="M265,634.3c11.5,3.5,21.7,6.5,33.3,10c3,7.8,5.5,17.2,11.2,24.6c-7.8,18.6-12.4,35.2-14.6,55.4
		C245.7,720.6,237.1,668.6,265,634.3z"/>
	<path class="st0" d="M721.1,669.9c5.1-8.4,9.8-16.2,10.8-25.1c11.5-3.5,22.1-6.8,34-10.4c28.3,33.8,19.4,86.2-30.6,90.3
		C734.3,705.1,730.3,687.4,721.1,669.9z"/>
	<path class="st0" d="M572.4,852.1c10.3,20.4,28.4,29.3,48.7,36.5c-10.2,18.8-22.9,34.6-37.3,50.4
		C534.8,927.4,533.2,879.1,572.4,852.1z"/>
	<path class="st0" d="M862.2,455.8c23.1,50-1.6,100.8-63,135.1c-2.9-9.5-4.1-19.5-10.9-28C825.7,536.6,851.3,503,862.2,455.8z"/>
	<path class="st0" d="M577.5,745.4c-0.4,16.6,0.5,30.9,7,44.3c-3.4,6.1-6.7,12-10.3,18.5c-49,7.8-78.9-18-48.6-65.6
		C542.4,752.3,559.4,751.7,577.5,745.4z"/>
	<path class="st0" d="M669.7,607.4c-0.4-19.4-3.2-38-12.1-53.8c11.6-11.5,22.4-22.3,33.9-33.8C727.3,554.2,735.7,609.1,669.7,607.4z
		"/>
	<path class="st0" d="M303,470.5c8.5,13.9,16.7,27,25.3,41c-13,15.3-24,32.1-28.7,52c-19.2-2.3-29-10.1-32.5-25
		C260.2,508.9,268.3,493.3,303,470.5z"/>
	<path class="st0" d="M434.1,650.5c-5.4,21.1-7.7,40.6-1,60c-57.1,30-68.9-26.8-51.2-67.4C398.3,653.6,415.7,652.8,434.1,650.5z"/>
	<path class="st0" d="M320.4,679.1c13.2,7.6,26.5,11.8,40.6,14.4c2.4,6.7,4.7,13,7,19.4c-8.2,16.8-13.7,34.2-13.2,54.1
		C306.6,770.1,301.3,711.4,320.4,679.1z"/>
	<path class="st0" d="M169.7,458.5c10,44.8,36,78,72.1,103.9c-4,9.3-8.2,17.4-8.7,27.1C169.5,555.4,144.4,494.3,169.7,458.5z"/>
	<path class="st0" d="M328.2,781.9c-47.1,3.1-118.8,5.3-130.7-54.6c33.3,16.5,67.4,23.3,104.4,23.2c7,10.1,15.4,19.3,26.5,25.6
		C330,778.2,330,780.1,328.2,781.9z"/>
	<path class="st0" d="M536.3,874.1c-26-2.2-39-9.9-42-26.8c-2.9-17-4-34.4,8.5-51.5c16.7,26.2,40.9,27.3,65.6,26.9
		c2.6,5.4,0.7,10.5,0.3,16.1C554.6,847.5,544,859.7,536.3,874.1z"/>
	<path class="st0" d="M501.3,604c20.3,0,39.5-1.6,59.1-5.5c1.3,18.3-0.7,36.1,7,51.5c-2.4,4.9-6.3,6-9.6,7.8
		C514.3,684.5,499.1,642,501.3,604z"/>
	<path class="st0" d="M336.7,522.1c12.1,11.6,23.2,22.2,35.1,33.6c-6.3,16-9.4,33.3-8.5,52.4C299.4,609.4,301.3,560.4,336.7,522.1z"
		/>
	<path class="st0" d="M673.3,764.3c2.2-23.9-0.8-46.8-1.3-70.5c13.2-3.7,26.1-7.2,38.6-14.7C730.2,713.4,726.3,777.7,673.3,764.3z"
		/>
	<path class="st0" d="M500.9,782.9c-49.9,38.7-79.5-6.8-58-55.3c18.4,17.9,41.3,18.5,65.6,16.1C504.6,757.3,498.8,769.2,500.9,782.9
		z"/>
	<path class="st0" d="M231.7,787c41.3,13.3,82.2,10.8,124,6.4c1.6,8.9,3.1,17.1,4.8,26.5C319.5,826.8,243.8,842.4,231.7,787z"/>
	<path class="st0" d="M584,728.2c-44.1,23.1-70.8-2.2-62.4-48.1c20.4,0.9,37.5-6.6,56.6-19C575.9,685.1,573.1,706.8,584,728.2z"/>
	<path class="st0" d="M504.8,1004.5c-27.4-31.9-34.9-68.8-38-107.8c7-3,13.6-5.7,21.1-8.8c1.7,23.4,8.6,43.1,34.9,51.3
		C508.9,959.5,512.3,983.3,504.8,1004.5z"/>
	<path class="st0" d="M429.3,789.6c-53.5,10.6-74.5-16.5-52.2-65.6c15.7,8.6,31.7,8.9,49.8,4.7C420.4,750,420.3,769.3,429.3,789.6z"
		/>
	<path class="st0" d="M628.8,875.7c-44.6-10.4-57.7-37.3-35.7-72.4c15.1,16,34.7,20,56.3,19.8C644.8,842,637.4,858.7,628.8,875.7z"
		/>
	<path class="st0" d="M798.3,792.6c-14.6,55.6-91.2,32.1-131.6,26.9c-1.7-7.3,0.9-13.1,2.9-20.4
		C712.1,803.1,754.6,807.7,798.3,792.6z"/>
	<path class="st0" d="M713,610.5c15.2,37.9,2,58.9-42.7,69.4c-3.9-14-7.9-28.1-12-43.1c2.2-4,4.7-8.6,7.6-14
		C681.3,620.3,697.7,619,713,610.5z"/>
	<path class="st0" d="M429.2,637.3c-50.4,13.3-61.4-36.2-46.1-73.1c15.3,8.2,29.3,15.7,44.1,23.6
		C428.3,603.4,421.4,619.7,429.2,637.3z"/>
	<path class="st0" d="M369,622.3c5.2,20.6-11,37-8,56c-41.6-3.5-58.7-30.4-43.1-67.4C333.3,618.1,349.5,621.6,369,622.3z"/>
	<path class="st0" d="M496.9,656c-48.6,3.1-66.4-17.3-55-62.7c14.4,3.1,28.9,6.2,44.5,9.6C489.2,620,489.1,638.2,496.9,656z"/>
	<path class="st0" d="M149.7,601.8c26.6,25.8,56.4,42.8,87.5,58.9c-0.8,7.3-1.6,14.4-2.3,21.4C185.1,677.9,145.5,641.9,149.7,601.8z
		"/>
	<path class="st0" d="M262.6,561c9.9,9.3,21.7,14.6,35.2,17.5c1.6,8,4.3,15.6,8.7,22.1c-3,9.8-5.9,18.9-9,29.1
		C260.9,625.9,224.4,592.5,262.6,561z"/>
	<path class="st0" d="M767.5,560.6c39.6,32.1,3.4,64.3-33.9,69.5c-3-9.6-5.8-18.7-8.9-28.9c2.7-6.4,7.2-13.4,8-22
		C745.2,574.8,758.3,572.2,767.5,560.6z"/>
	<path class="st0" d="M795.6,682.8c-0.5-7.8-0.9-14.5-1.3-21.6c30.3-17.8,60.9-33.4,86.1-58.6C890.9,636.4,851.9,673.1,795.6,682.8z
		"/>
	<path class="st0" d="M646.6,990.9c-17.7-14.6-34.5-28.4-47.1-46.6c2.3-8,9.7-12,14.2-21.2c21.5,24.7,46.9,41.4,78,52.6
		C675.8,982.7,661.8,987.3,646.6,990.9z"/>
	<path class="st0" d="M653.9,853.7c2.2-6.6,4.6-13.3,7.3-21.2c28.5,4.7,56.9,10.2,86,8.4C740.2,869.5,691.3,876.2,653.9,853.7z"/>
	<path class="st0" d="M283.2,839.8c28.9,2.1,55.7-2.3,82.7-6.7c5.3,6.3,10.5,12.5,15.7,18.7C343.8,875.4,298.4,870.5,283.2,839.8z"
		/>
	<path class="st0" d="M763.1,730.5c13.2-7.1,23.3-17.2,29.2-31.7c23.4-5.8,46.4-13.2,67.2-26.6c-2.5,29-41.4,56-87.1,61
		C769.1,733.2,764.6,736.9,763.1,730.5z"/>
	<path class="st0" d="M257.7,733.1c-44.6-5.3-80.7-30-86.9-61c21.6,12.8,43.8,21.2,67.6,26.4c5.8,13.7,15.5,24.2,28.5,31.6
		C265.7,737,261.1,733.3,257.7,733.1z"/>
	<path class="st0" d="M388.8,994c-9.4-1.8-19-4.2-30.2-9.4c29.3-13.1,50.8-32.7,69.1-56.7c5.8-7.7,17.9-9,24.6-17.7
		C456.7,925.1,422,970.2,388.8,994z"/>
	<path class="st0" d="M487.4,1009.3c-25.8-1.6-50.1-4.2-77.6-10.2c19.2-13,37.4-21.8,55.9-31.7
		C472.9,981.2,479.7,994.3,487.4,1009.3z"/>
	<path class="st0" d="M335.1,878.3c28.2,2.7,49.2-17.9,74.4-17.5c4.9,7.3,8.3,12.4,11.7,17.5C403.4,895.4,351.2,898.2,335.1,878.3z"
		/>
	<path class="st0" d="M569.5,972.7c17.1,10.6,27.6,16.2,46.8,25.4c-31,7.7-59.5,10.4-89.5,8.4C540.9,995.4,554.9,984.3,569.5,972.7z
		"/>
	<path class="st0" d="M413.6,805.4c-3.2,14.2-5.1,27.5-5.3,40.9c-21.7-1.6-34.7-18.9-37.1-49.8C384.7,802.2,398.4,805.2,413.6,805.4
		z"/>
	<path class="st0" d="M524.1,991c-2.3-19.6,4.6-34.5,11.3-49.2c14.5-6.7,25.2,1.5,37.4,8.8C558.2,965.3,542.8,978.1,524.1,991z"/>
	<path class="st0" d="M532,888.6c-1.3,13.1-0.3,25.4,7.6,36.4c-25.8,5-41.4-14.9-35.6-44C512.8,883.4,521.6,885.7,532,888.6z"/>
	<path class="st0" d="M650.6,618c-7.9-15.8-15.3-29.4-24.5-45.2c6-4,12.3-8.2,19.3-12.8C655.7,578.6,657.8,597.4,650.6,618z"/>
	<path class="st0" d="M693.5,881.2c-17.2,11.5-35.7,13.8-56.8,8.5c3.8-7.6,7.3-14.3,11-21.5C663.2,872.5,677.7,878.6,693.5,881.2z"
		/>
	<path class="st0" d="M434.3,888.5c4.2,1.8,8.6,3.8,13,5.7c-13.9,21.8-30.9,25.2-47.6,9.3C412,899,422.6,894.4,434.3,888.5z"/>
	<path class="st0" d="M611.2,980.5c-10.9-3.8-20.5-9.9-29.9-16c-0.1-5.8,4-7.6,7.7-10.5C591.9,958.7,614.9,977.6,611.2,980.5z"/>
	<path class="st0" d="M441.5,963c5.2-7.8,10.4-15.6,16-24.1c3.3,5.3,4.8,9.5,4.5,15.4C457,955.7,445.8,965.1,441.5,963z"/>
	<path class="st0" d="M568,17.8c-7.7,2.5-16.2-2.6-23.6,2.6c-2.6-1-5.2-2-10.4-4.1C547.2,14,557.6,14.6,568,17.8z"/>
	<path class="st0" d="M257.7,733.1c2.9-1.4,6.9,0.4,9.2-3c3.3,1.1,6.6,2.2,9.9,3.3C269.9,736,263.6,736.6,257.7,733.1z"/>
	<path class="st0" d="M763.1,730.5c3.1,0.9,6.2,1.8,9.3,2.7c-4.6,3.4-10.2,2-15.3,2.8c-2.8,0.6-3.7-0.4-2.6-3.1
		C757.4,732.1,760.3,731.3,763.1,730.5z"/>
	<path class="st0" d="M156.6,843.1c-3.9,2.1-9.5-1.5-12.5,3.7c-1.5-1.5-3.1-2.9-5.3-5C146.1,839.8,151.4,840.6,156.6,843.1z"/>
	<path class="st0" d="M25.5,586.3c-4.5,2-2.4,6.5-3.8,9.7c-2.7-4.1-3.5-8.4-1.7-13C22.9,582.6,24.5,584,25.5,586.3z"/>
	<path class="st0" d="M328.2,781.9c0.1-1.9,0.1-3.8,0.2-5.8c3.8,1.2,7.5,2.4,11.3,3.6c0,0.6,0,1.2,0,1.8
		C335.8,781.7,332,781.8,328.2,781.9z"/>
	<path class="st0" d="M479.5,587.4c2.1-1.2,5.4-0.4,6.4-3.6c2.6,0.6,4.2,2.1,4.3,5C486.3,590.4,482.7,590,479.5,587.4z"/>
	<path class="st0" d="M754.5,732.9c0.9,1,1.7,2.1,2.6,3.1c-2.5,2.7-5.6,2.6-9.6,2.1C749,734.5,751.3,733.2,754.5,732.9z"/>
	<path class="st0" d="M164.1,709.9c2.6-1,5.8-1,7.2-4.2c2.6,1.2,4.7,2.7,4.5,6.1C171.6,712.9,167.7,712.8,164.1,709.9z"/>
	<path class="st0" d="M979.1,683.5c-1.3-1.3-2.6-2.6-3.8-3.8c1-2.5,3-3.2,5.5-3.4C982.7,679.4,981.6,681.6,979.1,683.5z"/>
	<path class="st0" d="M345.5,329.9c1.2,1.2,2.4,2.4,3.6,3.6c-1.5,2-3.1,3.4-5.8,2C341.9,332.8,343.5,331.3,345.5,329.9z"/>
	<path class="st0" d="M611.2,980.5c-0.1-0.9-0.1-1.9,0.1-2.8c2.5,0.4,3.9,1.8,3.9,4.4C612.9,983.5,611.9,982.4,611.2,980.5z"/>
	<path class="st0" d="M375.5,155.6c-1,2.3-2.7,3.5-5.2,3.7c-2.4-3.2,1.4-4,3.5-5.4C374.4,154.5,374.9,155.1,375.5,155.6z"/>
	<path class="st0" d="M375.5,155.6c-1.3-0.2-2.5-0.3-3.8-0.5c0.8-1,1.7-2,2.5-3c1.5,0.2,2.9,0.4,4.4,0.6
		C377.6,153.7,376.5,154.7,375.5,155.6z"/>
	<path class="st0" d="M441.5,963c1.1,0,2.2,0,3.4,0c-1.3,1-2.6,2-3.9,2.9C439.1,963.8,440,963.3,441.5,963z"/>
	<path class="st0" d="M339.6,781.6c-0.2-0.6-0.1-1.2,0-1.8c1.2,0.1,2.4,0.1,3.7,0.2C342.6,782.6,341,781.9,339.6,781.6z"/>
	<path class="st0" d="M138.3,639.9c1-0.2,1.9-0.4,2.9-0.6c0.4,0.6,0.8,1.3,1.2,1.9C140.5,642.3,139,642.3,138.3,639.9z"/>
	<path class="st0" d="M654.9,154.8c-0.7-0.6-0.8-1.3-0.3-2.1c1.7,0.9,3.1,2,2.2,4.3C654.7,157.5,654.7,156.2,654.9,154.8z"/>
	<path class="st0" d="M140.9,636.8c-1.7-0.6-2.3-1.9-1.9-3.6C139.7,634.4,140.3,635.6,140.9,636.8z"/>
	<path class="st0" d="M597.2,381c80.6-61.8,90.4-193.1-26.2-215.8c-74.8-16.1-124.1,23.5-122.1,100.6
		c-31.4,20.1-82.4,35.2-103.4,64.2c-3.7,15,83.4-39.1,97.1-39.3c5.6,11.6-1.5,13.5-7,16.2c-32.5,15.9-65,31.6-98.1,47.7
		c8.1,8.8,14.5,2.7,20.6-0.2c38.5-15.9,174-91.5,201-44.3c3.5,10.6-1.9,18.8-8.6,26.2c-8.8,9.8-20.7,13.8-33.1,17.2
		c-79.1,21.3-146.8,82.6-167,163.2c35.4,38.4,77.4,63.3,129,70.8c3.2,0.8,6.7,2,6.4-3.6c-109.1-99.7,21.8-164.6,79.1-241.3
		c18.2-23.9,38.3-74.2,9.1-96.5c-28.4-17-67.9-0.4-87.1,24.6c-7.7-7.6-8.2-17.1-16.5-24c32.7-5.6,62.4-16,85-40
		c3.1-7-4-17.7,10-21.7c2.8,9.4,11.4,12.4,20.4,16.1c-1.8,16.9-23.6,10.4-27.2,25.6c10.1,1.3,19.1,6.6,29.7,4.6
		c5.3-1.2,7.8-7.5,13.7-7.6c19.4,19.5-7.5,106.3-26,126.2c-60.6,82.8-196,144.6-60.3,240.5c33.7-0.4,65.4-8.6,95.3-24.6
		c-27.7-42-70.7-82.4-46.6-135.3C571.2,411.1,582.2,394.7,597.2,381z M503.3,228.2c-25.5,0.5-26.2-38-0.6-38
		C527.2,189.2,527.3,228,503.3,228.2z"/>
	<path class="st0" d="M507.3,201.8c11.8,9.9-2.6,23.7-11.8,13.4C502.4,213.3,507.1,210,507.3,201.8z"/>
</g>
</svg>
